<svg id="edVCeQG8ktu1" xmlns="http://www.w3.org/2000/svg" xmlns:xlink="http://www.w3.org/1999/xlink" viewBox="0 0 300 300" shape-rendering="geometricPrecision" text-rendering="geometricPrecision">
<style><![CDATA[
#edVCeQG8ktu28_ts {animation: edVCeQG8ktu28_ts__ts 5200ms linear infinite normal forwards}@keyframes edVCeQG8ktu28_ts__ts { 0% {transform: translate(144px,140px) rotate(144.043187deg) scale(0.1,0.1)} 53.846154% {transform: translate(144px,140px) rotate(144.043187deg) scale(0.1,0.1);animation-timing-function: cubic-bezier(0.865,0.005,0.43,0.97)} 65.384615% {transform: translate(144px,140px) rotate(144.043187deg) scale(1.5,1.5)} 100% {transform: translate(144px,140px) rotate(144.043187deg) scale(1.5,1.5)}} #edVCeQG8ktu28 {animation: edVCeQG8ktu28_c_o 5200ms linear infinite normal forwards}@keyframes edVCeQG8ktu28_c_o { 0% {opacity: 0} 50% {opacity: 0} 53.846154% {opacity: 1} 69.230769% {opacity: 1} 71.153846% {opacity: 0} 100% {opacity: 0}} #edVCeQG8ktu29_ts {animation: edVCeQG8ktu29_ts__ts 5200ms linear infinite normal forwards}@keyframes edVCeQG8ktu29_ts__ts { 0% {transform: translate(144px,140px) scale(0.05,0.05)} 53.846154% {transform: translate(144px,140px) scale(0.05,0.05);animation-timing-function: cubic-bezier(1,0.1,0.58,1)} 67.307692% {transform: translate(144px,140px) scale(2.4,2.4)} 100% {transform: translate(144px,140px) scale(2.4,2.4)}} #edVCeQG8ktu29 {animation: edVCeQG8ktu29_c_o 5200ms linear infinite normal forwards}@keyframes edVCeQG8ktu29_c_o { 0% {opacity: 0} 50% {opacity: 0} 55% {opacity: 1} 71.346154% {opacity: 1} 73.076923% {opacity: 0} 100% {opacity: 0}} #edVCeQG8ktu30_to {animation: edVCeQG8ktu30_to__to 5200ms linear infinite normal forwards}@keyframes edVCeQG8ktu30_to__to { 0% {transform: translate(273.71764px,283.794441px)} 7.692308% {transform: translate(273.71764px,283.794441px);animation-timing-function: cubic-bezier(0.42,0,0.58,1)} 48.076923% {transform: translate(152.427565px,154.393009px)} 100% {transform: translate(152.427565px,154.393009px)}}
]]></style>
<rect width="124.41837" height="134.73599" rx="0" ry="0" transform="matrix(2.213185 0 0 1.924216 14.74713 14.512598)" fill="#2a303c" stroke-width="0"/><rect width="30" height="30" rx="5" ry="5" transform="matrix(8.0803-.007631 0.007151 7.572847 31.308628 31.073326)" fill="#fff" stroke-width="0"/><ellipse rx="8.58573" ry="5.10168" transform="matrix(.740006 1.372681-1.377048 0.74236 165.353474 123.514967)" fill="#2a303c" stroke-width="0"/><ellipse rx="8.58573" ry="5.10168" transform="matrix(.591384-.80639 0.43481 0.318877 133.696661 117.188688)" fill="#2a303c" stroke-width="0"/><ellipse rx="8.58573" ry="5.10168" transform="matrix(.789204-1.452749 0.748773 0.40677 131.575088 121.600445)" fill="#2a303c" stroke-width="0"/><rect width="22.455998" height="36.415133" rx="3" ry="3" transform="matrix(1.002597 0.453556-.463683 1.024984 140.830584 173.18691)" fill="#2a303c" stroke-width="0"/><rect width="22.455998" height="36.415133" rx="3" ry="3" transform="matrix(1.035627 0.468498-.548845 1.213236 140.487561 162.906254)" fill="#2a303c" stroke-width="0"/><ellipse rx="17.600647" ry="25.187134" transform="matrix(1.637933 0 0 1.409638 152.427565 144.143172)" fill="#2a303c" stroke-width="0"/><rect width="22.455998" height="36.415133" rx="3" ry="3" transform="matrix(.693273-.138273 0.210598 1.055898 149.565767 170.602927)" fill="#2a303c" stroke-width="0"/><rect width="22.455998" height="36.415133" rx="3" ry="3" transform="matrix(.693273-.138273 0.210598 1.055898 149.565767 170.602927)" fill="#2a303c" stroke-width="0"/><ellipse rx="43.594938" ry="4.30887" transform="matrix(1.23534 0.580319-2.116632 4.505725 199.320389 231.875568)" fill="#2a303c" stroke-width="0"/><ellipse rx="2.342482" ry="5.415617" transform="matrix(.742684 0.115945-.144821 0.927648 181.256246 145.466217)" fill="#2a303c" stroke-width="0"/><ellipse rx="2.342482" ry="5.415617" transform="matrix(.735699-.154173 0.192569 0.918923 123.212668 145.827364)" fill="#2a303c" stroke-width="0"/><ellipse rx="43.594938" ry="4.30887" transform="matrix(.211211-.397194 2.454409 1.305151 166.781241 155.340058)" fill="#2a303c" stroke-width="0"/><ellipse rx="8.58573" ry="5.10168" transform="matrix(1.39326-.753945 0.490156 0.905789 143.645204 110.26524)" fill="#2a303c" stroke-width="0"/><ellipse rx="8.58573" ry="5.10168" transform="matrix(1.132377 2.100513-1.915114 1.032429 167.072121 124.112136)" fill="#2a303c" stroke-width="0"/><g><path d="" transform="translate(.000002 0.000003)" fill="none" stroke="#3f5787" stroke-width="0.6"/></g><path d="" fill="none" stroke="#3f5787" stroke-width="0.6"/><rect width="22.455998" height="36.415133" rx="3" ry="3" transform="matrix(.782469-.156062 0.054084 0.271167 159.975936 199.17901)" fill="#2a303c" stroke-width="0"/><path d="M179.516524,179.647914l-12.933758-4.606374l1.347848,10.196425c.574466,5.960633.830261,14.056778,5.396487,15.479395l7.929146,1.77516-1.739723-22.844606Z" transform="translate(-.000001 0)" fill="#fff" stroke="rgba(42,48,60,0)" stroke-width="0.6"/><path d="M46.523913,263.535183h191.141002q-79.227576-39.748431-80.995066-42.838313t-98.532739,17.684359L46.523913,263.535183Z" transform="matrix(.887116 0 0 1 16.092639 0.000001)" fill="#2a303c" stroke-width="0.6"/><ellipse rx="43.594938" ry="4.30887" transform="matrix(-1.163636 0.615817-2.328535-4.399956 103.081672 231.253689)" fill="#2a303c" stroke-width="0"/><path d="M179.516524,179.647914l-12.933758-4.606374l1.347848,10.196425c.574466,5.960633.830261,14.056778,5.396487,15.479395l7.929146,1.77516-1.739723-22.844606Z" transform="matrix(-.961546 0 0 1 296.091914-1.85463)" fill="#fff" stroke="rgba(42,48,60,0)" stroke-width="0.6"/><ellipse rx="43.594938" ry="4.30887" transform="matrix(-.141634-.408596 2.16118-.749143 134.513218 151.165048)" fill="#2a303c" stroke-width="0"/><ellipse rx="2.286224" ry="3.605952" transform="translate(155.392962 110.26524)" fill="#2a303c" stroke-width="0"/><g id="edVCeQG8ktu28_ts" transform="translate(144,140) rotate(144.043187) scale(0.1,0.1)"><polygon id="edVCeQG8ktu28" points="0,-8.507264 2.500222,-3.441261 8.090889,-2.628889 4.045444,1.314445 5.000444,6.882521 0,4.253632 -5.000444,6.882521 -4.045444,1.314445 -8.090889,-2.628889 -2.500222,-3.441261 0,-8.507264" transform="translate(0,0)" opacity="0" fill="#d2dbed" stroke-width="0"/></g><g id="edVCeQG8ktu29_ts" transform="translate(144,140) scale(0.05,0.05)"><polygon id="edVCeQG8ktu29" points="0,-5.622175 1.652316,-2.274218 5.347006,-1.737348 2.673503,0.868674 3.304632,4.548435 0,2.811088 -3.304632,4.548435 -2.673503,0.868674 -5.347006,-1.737348 -1.652316,-2.274218 0,-5.622175" transform="translate(0,0)" opacity="0" fill="#2a303c" stroke-width="0"/></g><g id="edVCeQG8ktu30_to" transform="translate(273.71764,283.794441)"><path d="M11.440644,88.108089L0,112.117367l7.281655-3.478938l5.457663.489108l6.085542,4.743653-7.384216-25.763101Z" transform="rotate(-39.992317) translate(-8.618541,-102.808637)" fill="#f6f6f6" stroke="#212122" stroke-width="0.6"/></g></svg>
